<svg xmlns="http://www.w3.org/2000/svg" fill="none" viewBox="0 0 16 16">
  <path fill="#fff" fill-rule="evenodd" d="M8 2.5a.5.5 0 00-.5-.5H2a2 2 0 00-2 2v8a2 2 0 002 2h5.5a.5.5 0 000-1H2a1 1 0 01-1-1V4a1 1 0 011-1h5.5a.5.5 0 00.5-.5zM16 4a2 2 0 00-2-2H9.5a.5.5 0 00-.5.5v11a.5.5 0 00.5.5H14a2 2 0 002-2V4zm-2-1a1 1 0 011 1v8a1 1 0 01-1 1h-4V3h4z" clip-rule="evenodd"/>
  <path fill="#fff" fill-rule="evenodd" d="M11 6.5a.5.5 0 01.5-.5h2a.5.5 0 010 1h-2a.5.5 0 01-.5-.5zm0 2a.5.5 0 01.5-.5h2a.5.5 0 010 1h-2a.5.5 0 01-.5-.5zm0 2a.5.5 0 01.5-.5h2a.5.5 0 010 1h-2a.5.5 0 01-.5-.5z" clip-rule="evenodd"/>
</svg>
