<svg xmlns="http://www.w3.org/2000/svg" fill="none" viewBox="0 0 16 16">
  <g clip-path="url(#clip0)">
    <path fill="#fff" fill-rule="evenodd" d="M1 2a1 1 0 011-1h2a1 1 0 011 1v2a1 1 0 01-1 1H2a1 1 0 01-1-1V2zm3 0H2v2h2V2zM1 7a1 1 0 011-1h2a1 1 0 011 1v2a1 1 0 01-1 1H2a1 1 0 01-1-1V7zm3 0H2v2h2V7zm-3 5a1 1 0 011-1h2a1 1 0 011 1v2a1 1 0 01-1 1H2a1 1 0 01-1-1v-2zm3 0H2v2h2v-2zM6.5 2a.5.5 0 000 1h8a.5.5 0 000-1h-8zm0 5a.5.5 0 000 1h.438c.285-.372.615-.708.982-1H6.5zM7 11.5a4.5 4.5 0 119 0 4.5 4.5 0 01-9 0zm6.898.398a.562.562 0 01-.796 0L12 10.796V13.5a.5.5 0 01-1 0v-2.704l-1.102 1.102a.562.562 0 11-.796-.796l2-2c.22-.22.576-.22.796 0l2 2c.22.22.22.576 0 .796z" clip-rule="evenodd"/>
  </g>
  <defs>
    <clipPath id="clip0">
      <path fill="#fff" d="M0 0h16v16H0z"/>
    </clipPath>
  </defs>
</svg>
