<?xml version="1.0" encoding="utf-8"?>
<!-- Generator: Adobe Illustrator 23.0.0, SVG Export Plug-In . SVG Version: 6.00 Build 0)  -->
<svg version="1.1" xmlns="http://www.w3.org/2000/svg" xmlns:xlink="http://www.w3.org/1999/xlink" x="0px" y="0px"
	 viewBox="0 0 32 32" enable-background="new 0 0 32 32" xml:space="preserve">
<g id="_x5F_GRID" display="none">
	<g display="inline">
		<path fill="#D0D0D0" d="M32,1v32H0V1H32 M33,0h-1H0h-1v1v32v1h1h32h1v-1V1V0L33,0z"/>
	</g>
	<g display="inline" opacity="0.1">
		<path fill="#FF3A6D" d="M30,3v28H2V3H30 M32,1H0v32h32V1L32,1z"/>
	</g>
</g>
<g id="ICONS">
	<path fill="#FFB900" d="M15,8l-1.4142-1.4142C13.2107,6.2107,12.702,6,12.1716,6H3C2.4477,6,2,6.4477,2,7v18.5
		C2,25.7761,2.2239,26,2.5,26h27c0.2761,0,0.5-0.2239,0.5-0.5V9c0-0.5523-0.4477-1-1-1H15z"/>
	<path fill="#FFD75E" d="M15,8l-1.4142,1.4142C13.2107,9.7893,12.702,10,12.1716,10H2v15.5C2,25.7761,2.2239,26,2.5,26h27
		c0.2761,0,0.5-0.2239,0.5-0.5V9c0-0.5523-0.4477-1-1-1H15z"/>
	<linearGradient id="SVGID_1_" gradientUnits="userSpaceOnUse" x1="16" y1="8" x2="16" y2="26">
		<stop  offset="0" style="stop-color:#FFFFFF;stop-opacity:0"/>
		<stop  offset="1" style="stop-color:#FFD75E;stop-opacity:0.3"/>
	</linearGradient>
	<path fill="url(#SVGID_1_)" d="M15,8l-1.4142,1.4142C13.2107,9.7893,12.702,10,12.1716,10H2v15.5C2,25.7761,2.2239,26,2.5,26h27
		c0.2761,0,0.5-0.2239,0.5-0.5V9c0-0.5523-0.4477-1-1-1H15z"/>
	<path opacity="0.4" fill="#FFFFFF" d="M16.5,8l-2.1213,2.1213C13.8161,10.6839,13.053,11,12.2574,11H2v-1h10.1716
		c0.5304,0,1.0391-0.2107,1.4142-0.5858L15,8H16.5z"/>
	<path fill="#DA7B16" d="M2,25h28v0.5c0,0.2761-0.2239,0.5-0.5,0.5h-27C2.2239,26,2,25.7761,2,25.5V25z"/>
	<g>
		<path fill="#E99E0C" d="M12.5,15h-8C4.2239,15,4,15.2238,4,15.5v3v3C4,21.7761,4.2239,22,4.5,22h8c0.2761,0,0.5-0.2239,0.5-0.5v-6
			C13,15.2238,12.7761,15,12.5,15z M12,20.75c0,0.1381-0.1119,0.25-0.25,0.25h-6.5C5.1119,21,5,20.8881,5,20.75V19h2.5
			C7.7761,19,8,18.7761,8,18.5C8,18.2238,7.7761,18,7.5,18H5v-1.75C5,16.1119,5.1119,16,5.25,16h6.5c0.1381,0,0.25,0.1119,0.25,0.25
			V20.75z"/>
		<rect x="2" y="16" fill="#E99E0C" width="1" height="5"/>
		<rect x="14" y="16" fill="#E99E0C" width="16" height="5"/>
	</g>
</g>
<g id="CENTERED_x5F_MARGINS" display="none">
</g>
<g id="_x5F_FILE_x5F_CENTER" display="none">
</g>
<g id="_x5F_THREE_x5F_HEIGHTS" display="none">
</g>
<g id="FOLDER_x5F_INCIDACTORS" display="none">
</g>
</svg>
