<?xml version="1.0" encoding="utf-8"?>
<!-- Generator: Adobe Illustrator 23.0.0, SVG Export Plug-In . SVG Version: 6.00 Build 0)  -->
<svg version="1.1" xmlns="http://www.w3.org/2000/svg" xmlns:xlink="http://www.w3.org/1999/xlink" x="0px" y="0px"
	 viewBox="0 0 32 32" enable-background="new 0 0 32 32" xml:space="preserve">
<g id="_x5F_GRID" display="none">
</g>
<g id="ICONS">
	<path fill="#FFFFFF" stroke="#979593" stroke-miterlimit="10" d="M27.5,25.5h-23c-0.5523,0-1-0.4477-1-1v-17c0-0.5523,0.4477-1,1-1
		h23c0.5523,0,1,0.4477,1,1v17C28.5,25.0523,28.0523,25.5,27.5,25.5z"/>
	<circle fill="#C8C6C4" cx="6" cy="9" r="1"/>
	<circle fill="#C8C6C4" cx="9" cy="9" r="1"/>
	<circle fill="#C8C6C4" cx="12" cy="9" r="1"/>
	<line fill="none" stroke="#979593" stroke-miterlimit="10" x1="3.5" y1="11.5" x2="28.5" y2="11.5"/>
	<path fill="#EDEBE9" d="M12,25H4.5C4.2239,25,4,24.7761,4,24.5V12h8V25z"/>
	<g>
		<path fill="#C8C6C4" d="M9.5,15h-3C6.2239,15,6,14.7761,6,14.5v0C6,14.2239,6.2239,14,6.5,14h3c0.2761,0,0.5,0.2239,0.5,0.5v0
			C10,14.7761,9.7761,15,9.5,15z"/>
		<path fill="#C8C6C4" d="M9.5,17h-3C6.2239,17,6,16.7761,6,16.5l0,0C6,16.2239,6.2239,16,6.5,16h3c0.2761,0,0.5,0.2239,0.5,0.5l0,0
			C10,16.7761,9.7761,17,9.5,17z"/>
		<path fill="#C8C6C4" d="M9.5,19h-3C6.2239,19,6,18.7761,6,18.5l0,0C6,18.2239,6.2239,18,6.5,18h3c0.2761,0,0.5,0.2239,0.5,0.5l0,0
			C10,18.7761,9.7761,19,9.5,19z"/>
	</g>
	<g>
		<path fill="#C8C6C4" d="M18.5,15h-4c-0.2761,0-0.5-0.2239-0.5-0.5v0c0-0.2761,0.2239-0.5,0.5-0.5h4c0.2761,0,0.5,0.2239,0.5,0.5v0
			C19,14.7761,18.7761,15,18.5,15z"/>
		<path fill="#C8C6C4" d="M18.5,17h-4c-0.2761,0-0.5-0.2239-0.5-0.5l0,0c0-0.2761,0.2239-0.5,0.5-0.5h4c0.2761,0,0.5,0.2239,0.5,0.5
			l0,0C19,16.7761,18.7761,17,18.5,17z"/>
		<path fill="#C8C6C4" d="M18.5,19h-4c-0.2761,0-0.5-0.2239-0.5-0.5l0,0c0-0.2761,0.2239-0.5,0.5-0.5h4c0.2761,0,0.5,0.2239,0.5,0.5
			l0,0C19,18.7761,18.7761,19,18.5,19z"/>
		<path fill="#C8C6C4" d="M18.5,21h-4c-0.2761,0-0.5-0.2239-0.5-0.5l0,0c0-0.2761,0.2239-0.5,0.5-0.5h4c0.2761,0,0.5,0.2239,0.5,0.5
			l0,0C19,20.7761,18.7761,21,18.5,21z"/>
		<path fill="#C8C6C4" d="M18.5,23h-4c-0.2761,0-0.5-0.2239-0.5-0.5l0,0c0-0.2761,0.2239-0.5,0.5-0.5h4c0.2761,0,0.5,0.2239,0.5,0.5
			l0,0C19,22.7761,18.7761,23,18.5,23z"/>
	</g>
	<path fill="#69AFE5" d="M25,23h-3c-0.5523,0-1-0.4477-1-1v-7c0-0.5523,0.4477-1,1-1h3c0.5523,0,1,0.4477,1,1v7
		C26,22.5523,25.5523,23,25,23z"/>
</g>
<g id="CENTERED_x5F_MARGINS" display="none">
	<g display="inline">
		<g>
			<rect transform="matrix(-1 -1.224647e-16 1.224647e-16 -1 3 32)" opacity="0.3" fill="#00FFFF" width="3" height="32"/>
			
				<rect x="-13" y="13" transform="matrix(-1.836970e-16 1 -1 -1.836970e-16 19 13)" opacity="0.2" fill="#00FFFF" width="32" height="6"/>
		</g>
		<g>
			
				<rect x="14.5" y="-14.5" transform="matrix(6.123234e-17 -1 1 6.123234e-17 14.5 17.5)" opacity="0.3" fill="#00FFFF" width="3" height="32"/>
			<rect transform="matrix(-1 -1.224647e-16 1.224647e-16 -1 32 6)" opacity="0.2" fill="#00FFFF" width="32" height="6"/>
		</g>
		<g>
			
				<rect x="14.5" y="14.5" transform="matrix(-1.836970e-16 1 -1 -1.836970e-16 46.5 14.5)" opacity="0.3" fill="#00FFFF" width="3" height="32"/>
			<rect y="26" opacity="0.2" fill="#00FFFF" width="32" height="6"/>
		</g>
		<g>
			<rect x="29" opacity="0.3" fill="#00FFFF" width="3" height="32"/>
			
				<rect x="13" y="13" transform="matrix(6.123234e-17 -1 1 6.123234e-17 13 45)" opacity="0.2" fill="#00FFFF" width="32" height="6"/>
		</g>
	</g>
</g>
<g id="_x5F_FILE_x5F_CENTER" display="none">
</g>
<g id="_x5F_THREE_x5F_HEIGHTS" display="none">
</g>
<g id="FOLDER_x5F_INCIDACTORS" display="none">
</g>
</svg>
