<?xml version="1.0" encoding="utf-8"?>
<!-- Generator: Adobe Illustrator 23.0.0, SVG Export Plug-In . SVG Version: 6.00 Build 0)  -->
<svg version="1.1" xmlns="http://www.w3.org/2000/svg" xmlns:xlink="http://www.w3.org/1999/xlink" x="0px" y="0px"
	 viewBox="0 0 32 32" enable-background="new 0 0 32 32" xml:space="preserve">
<g id="_x5F_GRID" display="none">
	<g display="inline">
		<g>
			
				<rect x="14.5" y="-14.5" transform="matrix(6.123234e-17 -1 1 6.123234e-17 14.5 17.5)" opacity="0.2" fill="#FF00FF" width="3" height="32"/>
			
				<rect x="15" y="-15" transform="matrix(6.123234e-17 -1 1 6.123234e-17 15 17)" opacity="0.3" fill="#FF00FF" width="2" height="32"/>
		</g>
		<g>
			<rect x="29" opacity="0.2" fill="#FF00FF" width="3" height="32"/>
			<rect x="30" opacity="0.3" fill="#FF00FF" width="2" height="32"/>
		</g>
		<g>
			
				<rect x="14.5" y="14.5" transform="matrix(-1.836970e-16 1 -1 -1.836970e-16 46.5 14.5)" opacity="0.2" fill="#FF00FF" width="3" height="32"/>
			
				<rect x="15" y="15" transform="matrix(-1.836970e-16 1 -1 -1.836970e-16 47 15)" opacity="0.3" fill="#FF00FF" width="2" height="32"/>
		</g>
		<g>
			<rect transform="matrix(-1 -1.224647e-16 1.224647e-16 -1 3 32)" opacity="0.2" fill="#FF00FF" width="3" height="32"/>
			<rect transform="matrix(-1 -1.224647e-16 1.224647e-16 -1 2 32)" opacity="0.3" fill="#FF00FF" width="2" height="32"/>
		</g>
	</g>
</g>
<g id="ICONS">
	<path fill="#FFFFFF" stroke="#979593" stroke-miterlimit="10" d="M10.5,3.5v26c0,0.5523,0.4477,1,1,1h17c0.5523,0,1-0.4477,1-1v-26
		l-1-1h-18V3.5z"/>
	<path fill="#FFFFFF" stroke="#979593" stroke-miterlimit="10" d="M26.5,28.5h-17c-0.5523,0-1-0.4477-1-1v-23h19v23
		C27.5,28.0523,27.0523,28.5,26.5,28.5z"/>
	<path fill="#31752F" d="M30,6V3.4142c0-0.2652-0.1054-0.5196-0.2929-0.7071l-1.4142-1.4142C28.1054,1.1054,27.851,1,27.5858,1H9
		C8.4477,1,8,1.4477,8,2v4h20V4L30,6z"/>
	<path fill="none" stroke="#C8C6C4" stroke-miterlimit="10" d="M22.5,23.5h-14v-11h14c0.5523,0,1,0.4477,1,1v9
		C23.5,23.0523,23.0523,23.5,22.5,23.5z"/>
	<path fill="#8BBF8A" d="M20.5,19h-8c-0.2761,0-0.5-0.2239-0.5-0.5v-1c0-0.2761,0.2239-0.5,0.5-0.5h8c0.2761,0,0.5,0.2239,0.5,0.5v1
		C21,18.7761,20.7761,19,20.5,19z"/>
	<path fill="#8BBF8A" d="M20.5,16h-8c-0.2761,0-0.5-0.2239-0.5-0.5v-1c0-0.2761,0.2239-0.5,0.5-0.5h8c0.2761,0,0.5,0.2239,0.5,0.5v1
		C21,15.7761,20.7761,16,20.5,16z"/>
	<path fill="#8BBF8A" d="M19.5,20H23v2h-3.5c-0.2761,0-0.5-0.2239-0.5-0.5v-1C19,20.2239,19.2239,20,19.5,20z"/>
	<g>
		<path fill="#31752F" d="M3.5,25h11c0.8284,0,1.5-0.6716,1.5-1.5v-11c0-0.8284-0.6716-1.5-1.5-1.5h-11C2.6716,11,2,11.6716,2,12.5
			v11C2,24.3284,2.6716,25,3.5,25z"/>
		<g>
			<path fill="#FFFFFF" d="M9.5244,14.1948c0.9209,0,1.625,0.2061,2.1143,0.6177c0.4883,0.4116,0.7334,1.0078,0.7334,1.7886
				c0,0.5015-0.1211,0.9473-0.3633,1.3374c-0.2412,0.3901-0.585,0.6938-1.0312,0.9106c-0.4453,0.2163-0.9619,0.3247-1.5488,0.3247
				H7.9619v2.7231H6.7812v-7.7021H9.5244z M7.9619,17.9976h1.2949c0.5039,0,0.8857-0.1138,1.1436-0.3408
				c0.2578-0.2275,0.4412-0.594,0.4412-1.0311c0-0.8486-0.5486-1.3965-1.5369-1.3965H7.9619V17.9976z"/>
		</g>
	</g>
</g>
<g id="CENTERED_x5F_MARGINS" display="none">
</g>
<g id="_x5F_FILE_x5F_CENTER" display="none">
</g>
<g id="_x5F_RIGHT_x5F_MARGIN" display="none" opacity="0.5">
	<g display="inline">
	</g>
	<g display="inline">
	</g>
</g>
<g id="_x5F_THREE_x5F_HEIGHTS" display="none">
</g>
<g id="FOLDER_x5F_INCIDACTORS" display="none">
</g>
</svg>
