<?xml version="1.0" encoding="utf-8"?>
<!-- Generator: Adobe Illustrator 23.0.0, SVG Export Plug-In . SVG Version: 6.00 Build 0)  -->
<svg version="1.1" xmlns="http://www.w3.org/2000/svg" xmlns:xlink="http://www.w3.org/1999/xlink" x="0px" y="0px"
	 viewBox="0 0 32 32" enable-background="new 0 0 32 32" xml:space="preserve">
<g id="_x5F_GRID" display="none">
	<g display="inline">
		<g>
			
				<rect x="14.5" y="-14.5" transform="matrix(6.123234e-17 -1 1 6.123234e-17 14.5 17.5)" opacity="0.2" fill="#FF00FF" width="3" height="32"/>
			
				<rect x="15" y="-15" transform="matrix(6.123234e-17 -1 1 6.123234e-17 15 17)" opacity="0.3" fill="#FF00FF" width="2" height="32"/>
		</g>
		<g>
			<rect x="29" opacity="0.2" fill="#FF00FF" width="3" height="32"/>
			<rect x="30" opacity="0.3" fill="#FF00FF" width="2" height="32"/>
		</g>
		<g>
			
				<rect x="14.5" y="14.5" transform="matrix(-1.836970e-16 1 -1 -1.836970e-16 46.5 14.5)" opacity="0.2" fill="#FF00FF" width="3" height="32"/>
			
				<rect x="15" y="15" transform="matrix(-1.836970e-16 1 -1 -1.836970e-16 47 15)" opacity="0.3" fill="#FF00FF" width="2" height="32"/>
		</g>
		<g>
			<rect transform="matrix(-1 -1.224647e-16 1.224647e-16 -1 3 32)" opacity="0.2" fill="#FF00FF" width="3" height="32"/>
			<rect transform="matrix(-1 -1.224647e-16 1.224647e-16 -1 2 32)" opacity="0.3" fill="#FF00FF" width="2" height="32"/>
		</g>
	</g>
</g>
<g id="ICONS">
	<path fill="#FFFFFF" stroke="#979593" stroke-miterlimit="10" d="M28,4.5h0.5c0.5523,0,1,0.4477,1,1v3c0,0.5523-0.4477,1-1,1H28
		c-0.2761,0-0.5,0.2239-0.5,0.5v18.5c0,0.5523-0.4477,1-1,1h-17c-0.5523,0-1-0.4477-1-1v-25c0-0.5523,0.4477-1,1-1h17
		c0.5523,0,1,0.4477,1,1V4C27.5,4.2761,27.7239,4.5,28,4.5z"/>
	<g>
		<path fill="#979593" d="M8.5,6h-2C6.2239,6,6,5.7761,6,5.5v0C6,5.2239,6.2239,5,6.5,5h2C8.7761,5,9,5.2239,9,5.5v0
			C9,5.7761,8.7761,6,8.5,6z"/>
		<path fill="#979593" d="M8.5,8h-2C6.2239,8,6,7.7761,6,7.5v0C6,7.2239,6.2239,7,6.5,7h2C8.7761,7,9,7.2239,9,7.5v0
			C9,7.7761,8.7761,8,8.5,8z"/>
		<path fill="#979593" d="M8.5,10h-2C6.2239,10,6,9.7761,6,9.5v0C6,9.2239,6.2239,9,6.5,9h2C8.7761,9,9,9.2239,9,9.5v0
			C9,9.7761,8.7761,10,8.5,10z"/>
	</g>
	<path fill="#979593" d="M29,17h-2v-6h2c0.5523,0,1,0.4477,1,1v4C30,16.5523,29.5523,17,29,17z"/>
	<path fill="#979593" d="M29,24h-2v-6h2c0.5523,0,1,0.4477,1,1v4C30,23.5523,29.5523,24,29,24z"/>
	<g>
		<path fill="#C8C6C4" d="M24.5,15h-9c-0.2761,0-0.5-0.2239-0.5-0.5v0c0-0.2761,0.2239-0.5,0.5-0.5h9c0.2761,0,0.5,0.2239,0.5,0.5v0
			C25,14.7761,24.7761,15,24.5,15z"/>
		<path fill="#C8C6C4" d="M24.5,17h-9c-0.2761,0-0.5-0.2239-0.5-0.5l0,0c0-0.2761,0.2239-0.5,0.5-0.5h9c0.2761,0,0.5,0.2239,0.5,0.5
			l0,0C25,16.7761,24.7761,17,24.5,17z"/>
		<path fill="#C8C6C4" d="M24.5,19h-9c-0.2761,0-0.5-0.2239-0.5-0.5l0,0c0-0.2761,0.2239-0.5,0.5-0.5h9c0.2761,0,0.5,0.2239,0.5,0.5
			l0,0C25,18.7761,24.7761,19,24.5,19z"/>
		<path fill="#C8C6C4" d="M24.5,21h-9c-0.2761,0-0.5-0.2239-0.5-0.5l0,0c0-0.2761,0.2239-0.5,0.5-0.5h9c0.2761,0,0.5,0.2239,0.5,0.5
			l0,0C25,20.7761,24.7761,21,24.5,21z"/>
		<path fill="#C8C6C4" d="M24.5,23h-9c-0.2761,0-0.5-0.2239-0.5-0.5l0,0c0-0.2761,0.2239-0.5,0.5-0.5h9c0.2761,0,0.5,0.2239,0.5,0.5
			l0,0C25,22.7761,24.7761,23,24.5,23z"/>
	</g>
	<path fill="#7719AA" d="M3.5,25h11c0.8284,0,1.5-0.6716,1.5-1.5v-11c0-0.8284-0.6716-1.5-1.5-1.5h-11C2.6716,11,2,11.6716,2,12.5
		v11C2,24.3284,2.6716,25,3.5,25z"/>
	<g>
		<g>
			<path fill="#FFFFFF" d="M12.5417,22h-1.8156c0,0-3.6532-5.5356-3.7261-5.6842V22H5.3125v-8H7.372l3.6633,5.6842
				c-0.0294-0.1914-0.0131-5.6724-0.0131-5.6724L12.5417,14V22z"/>
		</g>
	</g>
</g>
<g id="CENTERED_x5F_MARGINS" display="none">
</g>
<g id="_x5F_FILE_x5F_CENTER" display="none">
</g>
<g id="_x5F_RIGHT_x5F_MARGIN" display="none" opacity="0.5">
	<g display="inline">
		<rect x="26" fill="#00FFFF" width="6" height="32"/>
	</g>
	<g display="inline">
		<rect x="26" opacity="0.3" fill="#00FFFF" width="6" height="32"/>
	</g>
</g>
<g id="_x5F_THREE_x5F_HEIGHTS" display="none">
	<rect x="16" y="10.5" display="inline" opacity="0.2" fill="#F7931E" width="16" height="16"/>
</g>
<g id="FOLDER_x5F_INCIDACTORS" display="none">
</g>
</svg>
