<?xml version="1.0" encoding="utf-8"?>
<!-- Generator: Adobe Illustrator 23.0.0, SVG Export Plug-In . SVG Version: 6.00 Build 0)  -->
<svg version="1.1" xmlns="http://www.w3.org/2000/svg" xmlns:xlink="http://www.w3.org/1999/xlink" x="0px" y="0px"
	 viewBox="0 0 32 32" enable-background="new 0 0 32 32" xml:space="preserve">
<g id="_x5F_GRID" display="none">
	<g display="inline">
		<g>
			
				<rect x="14.5" y="-14.5" transform="matrix(6.123234e-17 -1 1 6.123234e-17 14.5 17.5)" opacity="0.2" fill="#FF00FF" width="3" height="32"/>
			
				<rect x="15" y="-15" transform="matrix(6.123234e-17 -1 1 6.123234e-17 15 17)" opacity="0.3" fill="#FF00FF" width="2" height="32"/>
		</g>
		<g>
			<rect x="29" opacity="0.2" fill="#FF00FF" width="3" height="32"/>
			<rect x="30" opacity="0.3" fill="#FF00FF" width="2" height="32"/>
		</g>
		<g>
			
				<rect x="14.5" y="14.5" transform="matrix(-1.836970e-16 1 -1 -1.836970e-16 46.5 14.5)" opacity="0.2" fill="#FF00FF" width="3" height="32"/>
			
				<rect x="15" y="15" transform="matrix(-1.836970e-16 1 -1 -1.836970e-16 47 15)" opacity="0.3" fill="#FF00FF" width="2" height="32"/>
		</g>
		<g>
			<rect transform="matrix(-1 -1.224647e-16 1.224647e-16 -1 3 32)" opacity="0.2" fill="#FF00FF" width="3" height="32"/>
			<rect transform="matrix(-1 -1.224647e-16 1.224647e-16 -1 2 32)" opacity="0.3" fill="#FF00FF" width="2" height="32"/>
		</g>
	</g>
</g>
<g id="ICONS">
	<path fill="#FFFFFF" stroke="#979593" stroke-miterlimit="10" d="M23.0858,2.5H9.5c-0.5523,0-1,0.4477-1,1v25
		c0,0.5523,0.4477,1,1,1h19c0.5523,0,1-0.4477,1-1V8.9142c0-0.2652-0.1054-0.5196-0.2929-0.7071l-5.4142-5.4142
		C23.6054,2.6054,23.351,2.5,23.0858,2.5z"/>
	<path fill="none" stroke="#979593" stroke-miterlimit="10" d="M23.5,2.5v5c0,0.5523,0.4477,1,1,1h5"/>
	<path fill="#C8C6C4" d="M26.5,24H21h-4h-5.5c-0.2764,0-0.5,0.2236-0.5,0.5s0.2236,0.5,0.5,0.5H17h4h5.5
		c0.2764,0,0.5-0.2236,0.5-0.5S26.7764,24,26.5,24z"/>
	<path fill="#C8C6C4" d="M26.5,22H21h-4h-5.5c-0.2764,0-0.5,0.2236-0.5,0.5s0.2236,0.5,0.5,0.5H17h4h5.5
		c0.2764,0,0.5-0.2236,0.5-0.5S26.7764,22,26.5,22z"/>
	<g>
		<line fill="none" stroke="#C8C6C4" stroke-miterlimit="10" x1="15.5" y1="18.1538" x2="18.7726" y2="15.2588"/>
		<line fill="none" stroke="#C8C6C4" stroke-miterlimit="10" x1="20.5927" y1="15.1697" x2="23.331" y2="17.9079"/>
		<circle fill="none" stroke="#C8C6C4" stroke-miterlimit="10" cx="24" cy="19" r="1.5"/>
		<circle fill="none" stroke="#C8C6C4" stroke-miterlimit="10" cx="20" cy="14" r="1.5"/>
	</g>
	<path fill="#F2C80F" d="M3.5,25h11c0.8284,0,1.5-0.6716,1.5-1.5v-11c0-0.8284-0.6716-1.5-1.5-1.5h-11C2.6716,11,2,11.6716,2,12.5
		v11C2,24.3284,2.6716,25,3.5,25z"/>
	<path fill="#333333" d="M5.5,19L5.5,19C5.2239,19,5,19.2239,5,19.5v2C5,21.7761,5.2239,22,5.5,22h0C5.7761,22,6,21.7761,6,21.5v-2
		C6,19.2239,5.7761,19,5.5,19z"/>
	<path fill="#333333" d="M7.5,16L7.5,16C7.2239,16,7,16.2239,7,16.5v5C7,21.7761,7.2239,22,7.5,22h0C7.7761,22,8,21.7761,8,21.5v-5
		C8,16.2239,7.7761,16,7.5,16z"/>
	<path fill="#333333" d="M9.5,17L9.5,17C9.2239,17,9,17.2239,9,17.5v4C9,21.7761,9.2239,22,9.5,22h0c0.2761,0,0.5-0.2239,0.5-0.5v-4
		C10,17.2239,9.7761,17,9.5,17z"/>
	<path fill="#333333" d="M11.5,14L11.5,14c-0.2761,0-0.5,0.2239-0.5,0.5v7c0,0.2761,0.2239,0.5,0.5,0.5h0
		c0.2761,0,0.5-0.2239,0.5-0.5v-7C12,14.2239,11.7761,14,11.5,14z"/>
</g>
<g id="CENTERED_x5F_MARGINS" display="none">
</g>
<g id="_x5F_FILE_x5F_CENTER" display="none">
</g>
<g id="_x5F_THREE_x5F_HEIGHTS" display="none">
</g>
<g id="FOLDER_x5F_INCIDACTORS" display="none">
</g>
</svg>
