<?xml version="1.0" encoding="utf-8"?>
<!-- Generator: Adobe Illustrator 23.0.0, SVG Export Plug-In . SVG Version: 6.00 Build 0)  -->
<svg version="1.1" xmlns="http://www.w3.org/2000/svg" xmlns:xlink="http://www.w3.org/1999/xlink" x="0px" y="0px"
	 viewBox="0 0 32 32" enable-background="new 0 0 32 32" xml:space="preserve">
<g id="_x5F_GRID" display="none">
</g>
<g id="ICONS">
	<circle fill="#C8C6C4" cx="6" cy="9" r="1"/>
	<g>
		<path fill="#FFFFFF" stroke="#979593" stroke-miterlimit="10" d="M22.0858,6.5H4.5c-0.5523,0-1,0.4477-1,1v17
			c0,0.5523,0.4477,1,1,1h23c0.5523,0,1-0.4477,1-1V12.9142c0-0.2652-0.1054-0.5196-0.2929-0.7071l-5.4142-5.4142
			C22.6054,6.6054,22.351,6.5,22.0858,6.5z"/>
		<path fill="none" stroke="#979593" stroke-miterlimit="10" d="M22.5,6.5v5c0,0.5523,0.4477,1,1,1h5"/>
	</g>
	<g>
		<path fill="#217346" d="M9.5,15h-3C6.2239,15,6,14.7761,6,14.5v0C6,14.2239,6.2239,14,6.5,14h3c0.2761,0,0.5,0.2239,0.5,0.5v0
			C10,14.7761,9.7761,15,9.5,15z"/>
		<path fill="#217346" d="M9.5,13h-3C6.2239,13,6,12.7761,6,12.5v0C6,12.2239,6.2239,12,6.5,12h3c0.2761,0,0.5,0.2239,0.5,0.5v0
			C10,12.7761,9.7761,13,9.5,13z"/>
		<path fill="#217346" d="M9.5,17h-3C6.2239,17,6,16.7761,6,16.5l0,0C6,16.2239,6.2239,16,6.5,16h3c0.2761,0,0.5,0.2239,0.5,0.5l0,0
			C10,16.7761,9.7761,17,9.5,17z"/>
		<path fill="#217346" d="M9.5,19h-3C6.2239,19,6,18.7761,6,18.5l0,0C6,18.2239,6.2239,18,6.5,18h3c0.2761,0,0.5,0.2239,0.5,0.5l0,0
			C10,18.7761,9.7761,19,9.5,19z"/>
		<path fill="#217346" d="M9.5,21h-3C6.2239,21,6,20.7761,6,20.5l0,0C6,20.2239,6.2239,20,6.5,20h3c0.2761,0,0.5,0.2239,0.5,0.5l0,0
			C10,20.7761,9.7761,21,9.5,21z"/>
		<path fill="#217346" d="M9.5,23h-3C6.2239,23,6,22.7761,6,22.5l0,0C6,22.2239,6.2239,22,6.5,22h3c0.2761,0,0.5,0.2239,0.5,0.5l0,0
			C10,22.7761,9.7761,23,9.5,23z"/>
	</g>
	<g>
		<path fill="#C8C6C4" d="M14.5,15h-3c-0.2761,0-0.5-0.2239-0.5-0.5v0c0-0.2761,0.2239-0.5,0.5-0.5h3c0.2761,0,0.5,0.2239,0.5,0.5v0
			C15,14.7761,14.7761,15,14.5,15z"/>
		<path fill="#C8C6C4" d="M14.5,13h-3c-0.2761,0-0.5-0.2239-0.5-0.5v0c0-0.2761,0.2239-0.5,0.5-0.5h3c0.2761,0,0.5,0.2239,0.5,0.5v0
			C15,12.7761,14.7761,13,14.5,13z"/>
		<path fill="#C8C6C4" d="M14.5,17h-3c-0.2761,0-0.5-0.2239-0.5-0.5l0,0c0-0.2761,0.2239-0.5,0.5-0.5h3c0.2761,0,0.5,0.2239,0.5,0.5
			l0,0C15,16.7761,14.7761,17,14.5,17z"/>
		<path fill="#C8C6C4" d="M14.5,19h-3c-0.2761,0-0.5-0.2239-0.5-0.5l0,0c0-0.2761,0.2239-0.5,0.5-0.5h3c0.2761,0,0.5,0.2239,0.5,0.5
			l0,0C15,18.7761,14.7761,19,14.5,19z"/>
		<path fill="#C8C6C4" d="M14.5,21h-3c-0.2761,0-0.5-0.2239-0.5-0.5l0,0c0-0.2761,0.2239-0.5,0.5-0.5h3c0.2761,0,0.5,0.2239,0.5,0.5
			l0,0C15,20.7761,14.7761,21,14.5,21z"/>
		<path fill="#C8C6C4" d="M14.5,23h-3c-0.2761,0-0.5-0.2239-0.5-0.5l0,0c0-0.2761,0.2239-0.5,0.5-0.5h3c0.2761,0,0.5,0.2239,0.5,0.5
			l0,0C15,22.7761,14.7761,23,14.5,23z"/>
	</g>
	<g>
		<path fill="#C8C6C4" d="M19.5,15h-3c-0.2761,0-0.5-0.2239-0.5-0.5v0c0-0.2761,0.2239-0.5,0.5-0.5h3c0.2761,0,0.5,0.2239,0.5,0.5v0
			C20,14.7761,19.7761,15,19.5,15z"/>
		<path fill="#C8C6C4" d="M19.5,13h-3c-0.2761,0-0.5-0.2239-0.5-0.5v0c0-0.2761,0.2239-0.5,0.5-0.5h3c0.2761,0,0.5,0.2239,0.5,0.5v0
			C20,12.7761,19.7761,13,19.5,13z"/>
		<path fill="#C8C6C4" d="M19.5,17h-3c-0.2761,0-0.5-0.2239-0.5-0.5l0,0c0-0.2761,0.2239-0.5,0.5-0.5h3c0.2761,0,0.5,0.2239,0.5,0.5
			l0,0C20,16.7761,19.7761,17,19.5,17z"/>
		<path fill="#C8C6C4" d="M19.5,19h-3c-0.2761,0-0.5-0.2239-0.5-0.5l0,0c0-0.2761,0.2239-0.5,0.5-0.5h3c0.2761,0,0.5,0.2239,0.5,0.5
			l0,0C20,18.7761,19.7761,19,19.5,19z"/>
		<path fill="#C8C6C4" d="M19.5,21h-3c-0.2761,0-0.5-0.2239-0.5-0.5l0,0c0-0.2761,0.2239-0.5,0.5-0.5h3c0.2761,0,0.5,0.2239,0.5,0.5
			l0,0C20,20.7761,19.7761,21,19.5,21z"/>
		<path fill="#C8C6C4" d="M19.5,23h-3c-0.2761,0-0.5-0.2239-0.5-0.5l0,0c0-0.2761,0.2239-0.5,0.5-0.5h3c0.2761,0,0.5,0.2239,0.5,0.5
			l0,0C20,22.7761,19.7761,23,19.5,23z"/>
	</g>
	<g>
		<path fill="#C8C6C4" d="M24.5,15h-3c-0.2761,0-0.5-0.2239-0.5-0.5v0c0-0.2761,0.2239-0.5,0.5-0.5h3c0.2761,0,0.5,0.2239,0.5,0.5v0
			C25,14.7761,24.7761,15,24.5,15z"/>
		<path fill="#C8C6C4" d="M24.5,17h-3c-0.2761,0-0.5-0.2239-0.5-0.5l0,0c0-0.2761,0.2239-0.5,0.5-0.5h3c0.2761,0,0.5,0.2239,0.5,0.5
			l0,0C25,16.7761,24.7761,17,24.5,17z"/>
		<path fill="#C8C6C4" d="M24.5,19h-3c-0.2761,0-0.5-0.2239-0.5-0.5l0,0c0-0.2761,0.2239-0.5,0.5-0.5h3c0.2761,0,0.5,0.2239,0.5,0.5
			l0,0C25,18.7761,24.7761,19,24.5,19z"/>
		<path fill="#C8C6C4" d="M24.5,21h-3c-0.2761,0-0.5-0.2239-0.5-0.5l0,0c0-0.2761,0.2239-0.5,0.5-0.5h3c0.2761,0,0.5,0.2239,0.5,0.5
			l0,0C25,20.7761,24.7761,21,24.5,21z"/>
		<path fill="#C8C6C4" d="M24.5,23h-3c-0.2761,0-0.5-0.2239-0.5-0.5l0,0c0-0.2761,0.2239-0.5,0.5-0.5h3c0.2761,0,0.5,0.2239,0.5,0.5
			l0,0C25,22.7761,24.7761,23,24.5,23z"/>
	</g>
</g>
<g id="CENTERED_x5F_MARGINS" display="none">
	<g display="inline">
		<g>
			<rect transform="matrix(-1 -1.224647e-16 1.224647e-16 -1 3 32)" opacity="0.3" fill="#00FFFF" width="3" height="32"/>
			
				<rect x="-13" y="13" transform="matrix(-1.836970e-16 1 -1 -1.836970e-16 19 13)" opacity="0.2" fill="#00FFFF" width="32" height="6"/>
		</g>
		<g>
			
				<rect x="14.5" y="-14.5" transform="matrix(6.123234e-17 -1 1 6.123234e-17 14.5 17.5)" opacity="0.3" fill="#00FFFF" width="3" height="32"/>
			<rect transform="matrix(-1 -1.224647e-16 1.224647e-16 -1 32 6)" opacity="0.2" fill="#00FFFF" width="32" height="6"/>
		</g>
		<g>
			
				<rect x="14.5" y="14.5" transform="matrix(-1.836970e-16 1 -1 -1.836970e-16 46.5 14.5)" opacity="0.3" fill="#00FFFF" width="3" height="32"/>
			<rect y="26" opacity="0.2" fill="#00FFFF" width="32" height="6"/>
		</g>
		<g>
			<rect x="29" opacity="0.3" fill="#00FFFF" width="3" height="32"/>
			
				<rect x="13" y="13" transform="matrix(6.123234e-17 -1 1 6.123234e-17 13 45)" opacity="0.2" fill="#00FFFF" width="32" height="6"/>
		</g>
	</g>
</g>
<g id="_x5F_FILE_x5F_CENTER" display="none">
</g>
<g id="_x5F_THREE_x5F_HEIGHTS" display="none">
</g>
<g id="FOLDER_x5F_INCIDACTORS" display="none">
</g>
</svg>
