<?xml version="1.0" encoding="utf-8"?>
<!-- Generator: Adobe Illustrator 23.0.0, SVG Export Plug-In . SVG Version: 6.00 Build 0)  -->
<svg version="1.1" xmlns="http://www.w3.org/2000/svg" xmlns:xlink="http://www.w3.org/1999/xlink" x="0px" y="0px"
	 viewBox="0 0 32 32" enable-background="new 0 0 32 32" xml:space="preserve">
<g id="_x5F_GRID" display="none">
	<g display="inline">
		<g>
			
				<rect x="14.5" y="-14.5" transform="matrix(6.123234e-17 -1 1 6.123234e-17 14.5 17.5)" opacity="0.2" fill="#FF00FF" width="3" height="32"/>
			
				<rect x="15" y="-15" transform="matrix(6.123234e-17 -1 1 6.123234e-17 15 17)" opacity="0.3" fill="#FF00FF" width="2" height="32"/>
		</g>
		<g>
			<rect x="29" opacity="0.2" fill="#FF00FF" width="3" height="32"/>
			<rect x="30" opacity="0.3" fill="#FF00FF" width="2" height="32"/>
		</g>
		<g>
			
				<rect x="14.5" y="14.5" transform="matrix(-1.836970e-16 1 -1 -1.836970e-16 46.5 14.5)" opacity="0.2" fill="#FF00FF" width="3" height="32"/>
			
				<rect x="15" y="15" transform="matrix(-1.836970e-16 1 -1 -1.836970e-16 47 15)" opacity="0.3" fill="#FF00FF" width="2" height="32"/>
		</g>
		<g>
			<rect transform="matrix(-1 -1.224647e-16 1.224647e-16 -1 3 32)" opacity="0.2" fill="#FF00FF" width="3" height="32"/>
			<rect transform="matrix(-1 -1.224647e-16 1.224647e-16 -1 2 32)" opacity="0.3" fill="#FF00FF" width="2" height="32"/>
		</g>
	</g>
</g>
<g id="ICONS">
	<path fill="#FFFFFF" stroke="#979593" stroke-miterlimit="10" d="M23.0858,2.5H9.5c-0.5523,0-1,0.4477-1,1v25
		c0,0.5523,0.4477,1,1,1h19c0.5523,0,1-0.4477,1-1V8.9142c0-0.2652-0.1054-0.5196-0.2929-0.7071l-5.4142-5.4142
		C23.6054,2.6054,23.351,2.5,23.0858,2.5z"/>
	<path fill="none" stroke="#979593" stroke-miterlimit="10" d="M23.5,2.5v5c0,0.5523,0.4477,1,1,1h5"/>
	<g>
		<path fill="#C8C6C4" d="M26.5,24h-5h-5h-5c-0.2761,0-0.5,0.2236-0.5,0.5s0.2239,0.5,0.5,0.5h5h5h5c0.2761,0,0.5-0.2236,0.5-0.5
			S26.7761,24,26.5,24z"/>
		<path fill="#C8C6C4" d="M26.5,26h-5h-5h-5c-0.2761,0-0.5,0.2236-0.5,0.5s0.2239,0.5,0.5,0.5h5h5h5c0.2761,0,0.5-0.2236,0.5-0.5
			S26.7761,26,26.5,26z"/>
		<path fill="#C8C6C4" d="M11.5,23h5h5h5c0.2761,0,0.5-0.2236,0.5-0.5S26.7761,22,26.5,22h-5h-5h-5c-0.2761,0-0.5,0.2236-0.5,0.5
			S11.2239,23,11.5,23z"/>
	</g>
	<g>
		<polygon fill="#99CDC7" points="18.9547,13 12.9547,21 24.9547,21 		"/>
	</g>
	<g>
		<polygon fill="#99CDC7" points="22.9547,16 18.9547,21 26.9547,21 		"/>
	</g>
	<circle fill="#99CDC7" cx="26" cy="12" r="1"/>
	<path fill="#008272" d="M3.5,25h11c0.8284,0,1.5-0.6716,1.5-1.5v-11c0-0.8284-0.6716-1.5-1.5-1.5h-11C2.6716,11,2,11.6716,2,12.5
		v11C2,24.3284,2.6716,25,3.5,25z"/>
	<g>
		<g>
			<path fill="#FFFFFF" d="M6.9605,17.8547c-0.3091-0.1958-0.5472-0.4281-0.7125-0.6961C6.0827,16.8906,6,16.5737,6,16.2069
				c0-0.4887,0.1536-0.8994,0.4618-1.2321c0.3073-0.3327,0.7161-0.5791,1.2255-0.7393c0.5103-0.1601,1.0692-0.2398,1.6766-0.2398
				c0.9308,0,1.6667,0.0954,2.2076,0.2862v1.4395c-0.2884-0.1651-0.6209-0.2912-0.9982-0.3775
				c-0.3783-0.0863-0.7673-0.1294-1.168-0.1294c-0.4834,0-0.8832,0.078-1.2004,0.2348c-0.3172,0.156-0.4762,0.3783-0.4762,0.6663
				c0,0.1792,0.0674,0.3369,0.2013,0.4713c0.1348,0.1352,0.3154,0.2547,0.5436,0.3584c0.2273,0.1045,0.5669,0.2431,1.0189,0.4157
				c0.0782,0.0249,0.1267,0.0431,0.1465,0.0539c0.5328,0.2016,0.9614,0.3966,1.2848,0.5849
				c0.3226,0.1892,0.5759,0.4248,0.7583,0.7069c0.1833,0.2821,0.2749,0.6372,0.2749,1.0645c0,0.5252-0.1438,0.9533-0.4322,1.2844
				c-0.2884,0.3302-0.6739,0.5692-1.1564,0.7169s-1.0315,0.2207-1.6469,0.2207c-0.5256,0-1.0234-0.0373-1.4924-0.1128
				c-0.469-0.0755-0.8733-0.1834-1.2112-0.3236V20.036c0.3306,0.2265,0.7395,0.4066,1.2255,0.5393
				c0.487,0.1328,0.9371,0.2,1.3495,0.2c0.5409,0,0.9488-0.0805,1.2237-0.2406c0.274-0.1601,0.4115-0.385,0.4115-0.677
				c0-0.1975-0.0773-0.37-0.2309-0.5177c-0.1536-0.1469-0.3657-0.2838-0.6361-0.4099c-0.2704-0.1253-0.6712-0.2904-1.2004-0.4962
				C7.6703,18.2439,7.2705,18.0506,6.9605,17.8547z"/>
		</g>
	</g>
</g>
<g id="CENTERED_x5F_MARGINS" display="none">
</g>
<g id="_x5F_FILE_x5F_CENTER" display="none">
</g>
<g id="_x5F_RIGHT_x5F_MARGIN" display="none" opacity="0.5">
	<g display="inline">
		<rect x="26" fill="#00FFFF" width="6" height="32"/>
	</g>
	<g display="inline">
		<rect x="26" opacity="0.3" fill="#00FFFF" width="6" height="32"/>
	</g>
</g>
<g id="_x5F_THREE_x5F_HEIGHTS" display="none">
	<rect x="16" y="11.5" display="inline" opacity="0.2" fill="#F7931E" width="16" height="16"/>
</g>
<g id="FOLDER_x5F_INCIDACTORS" display="none">
</g>
</svg>
