<?xml version="1.0" encoding="utf-8"?>
<!-- Generator: Adobe Illustrator 23.0.0, SVG Export Plug-In . SVG Version: 6.00 Build 0)  -->
<svg version="1.1" xmlns="http://www.w3.org/2000/svg" xmlns:xlink="http://www.w3.org/1999/xlink" x="0px" y="0px"
	 viewBox="0 0 32 32" enable-background="new 0 0 32 32" xml:space="preserve">
<g id="_x5F_GRID" display="none">
</g>
<g id="ICONS">
	<g>
		<path fill="#FFFFFF" stroke="#979593" stroke-miterlimit="10" d="M20.0858,2.5H6.5c-0.5523,0-1,0.4477-1,1v25
			c0,0.5523,0.4477,1,1,1h19c0.5523,0,1-0.4477,1-1V8.9142c0-0.2652-0.1054-0.5196-0.2929-0.7071l-5.4142-5.4142
			C20.6054,2.6054,20.351,2.5,20.0858,2.5z"/>
		<path fill="none" stroke="#979593" stroke-miterlimit="10" d="M20.5,2.5v5c0,0.5523,0.4477,1,1,1h5"/>
	</g>
	<g>
		
			<circle fill="none" stroke="#B4B0AD" stroke-linecap="round" stroke-linejoin="round" stroke-miterlimit="10" cx="16" cy="18" r="2.5"/>
		<path fill="none" stroke="#B4B0AD" stroke-linecap="round" stroke-linejoin="bevel" stroke-miterlimit="10" d="M22.1468,16.8872
			l-1.3625-0.1136c-0.0403-0.0034-0.0733-0.0315-0.084-0.0705c-0.1079-0.3918-0.2641-0.7635-0.4608-1.1091
			c-0.02-0.0352-0.0163-0.0781,0.0098-0.109l0.884-1.0448c0.1294-0.1529,0.12-0.3795-0.0217-0.5212l-1.0308-1.0308
			c-0.1417-0.1417-0.3683-0.1511-0.5212-0.0217l-1.0447,0.884c-0.0309,0.0261-0.0738,0.0298-0.109,0.0098
			c-0.3467-0.1973-0.7194-0.3538-1.1125-0.4617c-0.0369-0.0101-0.0633-0.0384-0.0665-0.0765
			c-0.0176-0.2114-0.0777-0.932-0.1143-1.3713c-0.0166-0.1996-0.1833-0.351-0.3837-0.351h-1.4578
			c-0.2003,0-0.3672,0.1536-0.3839,0.3532l-0.1135,1.3625c-0.0034,0.0403-0.0315,0.0733-0.0705,0.084
			c-0.3926,0.1081-0.765,0.2647-1.1112,0.462c-0.0339,0.0193-0.073,0.0176-0.1028-0.0076
			c-0.1634-0.1382-0.7144-0.6045-1.0505-0.8889c-0.1529-0.1294-0.3778-0.1185-0.5195,0.0231l-1.0309,1.0308
			c-0.1417,0.1417-0.1511,0.3683-0.0217,0.5212l0.884,1.0448c0.0261,0.0309,0.0298,0.0738,0.0098,0.109
			c-0.1967,0.3456-0.3529,0.7172-0.4608,1.1091c-0.0107,0.039-0.0437,0.0671-0.084,0.0705l-1.3625,0.1136
			C9.6536,16.9039,9.5,17.0708,9.5,17.2711v1.4578c0,0.2003,0.1536,0.3672,0.3532,0.3839l1.3625,0.1136
			c0.0403,0.0034,0.0733,0.0315,0.084,0.0705c0.1079,0.3918,0.2641,0.7635,0.4608,1.1091c0.02,0.0352,0.0163,0.0781-0.0098,0.109
			l-0.884,1.0448c-0.1294,0.1529-0.12,0.3795,0.0217,0.5212l1.0308,1.0308c0.1417,0.1417,0.3683,0.1511,0.5212,0.0217l1.0447-0.884
			c0.0309-0.0261,0.0738-0.0298,0.109-0.0098c0.3467,0.1973,0.7195,0.3538,1.1125,0.4617c0.0369,0.0101,0.0633,0.0384,0.0665,0.0765
			c0.0176,0.2114,0.0777,0.932,0.1143,1.3713c0.0166,0.1996,0.1833,0.351,0.3837,0.351h1.4578c0.2004,0,0.3673-0.1536,0.3839-0.3532
			l0.1135-1.3625c0.0034-0.0403,0.0315-0.0733,0.0705-0.084c0.3927-0.1081,0.765-0.2647,1.1112-0.462
			c0.0339-0.0193,0.073-0.0176,0.1028,0.0076c0.1634,0.1382,0.7144,0.6045,1.0505,0.8889c0.1529,0.1294,0.3778,0.1185,0.5195-0.0231
			l1.0309-1.0308c0.1417-0.1417,0.1511-0.3683,0.0217-0.5212l-0.884-1.0448c-0.0261-0.0309-0.0298-0.0738-0.0098-0.109
			c0.1967-0.3456,0.3529-0.7173,0.4608-1.1091c0.0107-0.039,0.0437-0.0671,0.084-0.0705l1.3625-0.1136
			c0.1997-0.0166,0.3532-0.1835,0.3532-0.3839v-1.4578C22.5,17.0708,22.3464,16.9039,22.1468,16.8872z"/>
	</g>
</g>
<g id="CENTERED_x5F_MARGINS" display="none">
	<g display="inline">
		<g>
			
				<rect x="14.5" y="-14.5" transform="matrix(6.123234e-17 -1 1 6.123234e-17 14.5 17.5)" opacity="0.2" fill="#FF00FF" width="3" height="32"/>
			
				<rect x="15" y="-15" transform="matrix(6.123234e-17 -1 1 6.123234e-17 15 17)" opacity="0.3" fill="#FF00FF" width="2" height="32"/>
		</g>
		<g>
			<rect x="29" opacity="0.2" fill="#FF00FF" width="3" height="32"/>
			<rect x="30" opacity="0.3" fill="#FF00FF" width="2" height="32"/>
		</g>
		<g>
			
				<rect x="14.5" y="14.5" transform="matrix(-1.836970e-16 1 -1 -1.836970e-16 46.5 14.5)" opacity="0.2" fill="#FF00FF" width="3" height="32"/>
			
				<rect x="15" y="15" transform="matrix(-1.836970e-16 1 -1 -1.836970e-16 47 15)" opacity="0.3" fill="#FF00FF" width="2" height="32"/>
		</g>
		<g>
			<rect transform="matrix(-1 -1.224647e-16 1.224647e-16 -1 3 32)" opacity="0.2" fill="#FF00FF" width="3" height="32"/>
			<rect transform="matrix(-1 -1.224647e-16 1.224647e-16 -1 2 32)" opacity="0.3" fill="#FF00FF" width="2" height="32"/>
		</g>
	</g>
	<g display="inline">
		<rect x="24" opacity="0.3" fill="#00FFFF" width="8" height="32"/>
		<rect opacity="0.3" fill="#00FFFF" width="8" height="32"/>
	</g>
</g>
<g id="_x5F_FILE_x5F_CENTER" display="none">
</g>
<g id="_x5F_THREE_x5F_HEIGHTS" display="none">
	<rect y="10" display="inline" opacity="0.2" fill="#F7931E" width="32" height="16"/>
</g>
<g id="FOLDER_x5F_INCIDACTORS" display="none">
</g>
</svg>
