<?xml version="1.0" encoding="utf-8"?>
<!-- Generator: Adobe Illustrator 23.0.0, SVG Export Plug-In . SVG Version: 6.00 Build 0)  -->
<svg version="1.1" xmlns="http://www.w3.org/2000/svg" xmlns:xlink="http://www.w3.org/1999/xlink" x="0px" y="0px"
	 viewBox="0 0 32 32" enable-background="new 0 0 32 32" xml:space="preserve">
<g id="_x5F_GRID" display="none">
	<g display="inline">
		<g>
			
				<rect x="14.5" y="-14.5" transform="matrix(6.123234e-17 -1 1 6.123234e-17 14.5 17.5)" opacity="0.2" fill="#FF00FF" width="3" height="32"/>
			
				<rect x="15" y="-15" transform="matrix(6.123234e-17 -1 1 6.123234e-17 15 17)" opacity="0.3" fill="#FF00FF" width="2" height="32"/>
		</g>
		<g>
			<rect x="29" opacity="0.2" fill="#FF00FF" width="3" height="32"/>
			<rect x="30" opacity="0.3" fill="#FF00FF" width="2" height="32"/>
		</g>
		<g>
			
				<rect x="14.5" y="14.5" transform="matrix(-1.836970e-16 1 -1 -1.836970e-16 46.5 14.5)" opacity="0.2" fill="#FF00FF" width="3" height="32"/>
			
				<rect x="15" y="15" transform="matrix(-1.836970e-16 1 -1 -1.836970e-16 47 15)" opacity="0.3" fill="#FF00FF" width="2" height="32"/>
		</g>
		<g>
			<rect transform="matrix(-1 -1.224647e-16 1.224647e-16 -1 3 32)" opacity="0.2" fill="#FF00FF" width="3" height="32"/>
			<rect transform="matrix(-1 -1.224647e-16 1.224647e-16 -1 2 32)" opacity="0.3" fill="#FF00FF" width="2" height="32"/>
		</g>
	</g>
</g>
<g id="ICONS">
	<path fill="#FFFFFF" stroke="#979593" stroke-miterlimit="10" d="M23.0858,2.5H9.5c-0.5523,0-1,0.4477-1,1v25
		c0,0.5523,0.4477,1,1,1h19c0.5523,0,1-0.4477,1-1V8.9142c0-0.2652-0.1054-0.5196-0.2929-0.7071l-5.4142-5.4142
		C23.6054,2.6054,23.351,2.5,23.0858,2.5z"/>
	<path fill="none" stroke="#979593" stroke-miterlimit="10" d="M23.5,2.5v5c0,0.5523,0.4477,1,1,1h5"/>
	<path fill="#C8C6C4" d="M26.5,15h-5c-0.2761,0-0.5-0.2239-0.5-0.5v0c0-0.2761,0.2239-0.5,0.5-0.5h5c0.2761,0,0.5,0.2239,0.5,0.5v0
		C27,14.7761,26.7761,15,26.5,15z"/>
	<path fill="#C8C6C4" d="M26.5,17h-5c-0.2761,0-0.5-0.2239-0.5-0.5l0,0c0-0.2761,0.2239-0.5,0.5-0.5h5c0.2761,0,0.5,0.2239,0.5,0.5
		l0,0C27,16.7761,26.7761,17,26.5,17z"/>
	<path fill="#C8C6C4" d="M26.5,19h-5c-0.2761,0-0.5-0.2239-0.5-0.5l0,0c0-0.2761,0.2239-0.5,0.5-0.5h5c0.2761,0,0.5,0.2239,0.5,0.5
		l0,0C27,18.7761,26.7761,19,26.5,19z"/>
	<path fill="#C8C6C4" d="M26.5,21h-5c-0.2761,0-0.5-0.2239-0.5-0.5l0,0c0-0.2761,0.2239-0.5,0.5-0.5h5c0.2761,0,0.5,0.2239,0.5,0.5
		l0,0C27,20.7761,26.7761,21,26.5,21z"/>
	<path fill="#C8C6C4" d="M26.5,23h-5c-0.2761,0-0.5-0.2239-0.5-0.5l0,0c0-0.2761,0.2239-0.5,0.5-0.5h5c0.2761,0,0.5,0.2239,0.5,0.5
		l0,0C27,22.7761,26.7761,23,26.5,23z"/>
	<path fill="#C8C6C4" d="M19.5,15h-4c-0.2761,0-0.5-0.2239-0.5-0.5v0c0-0.2761,0.2239-0.5,0.5-0.5h4c0.2761,0,0.5,0.2239,0.5,0.5v0
		C20,14.7761,19.7761,15,19.5,15z"/>
	<path fill="#C8C6C4" d="M19.5,17h-4c-0.2761,0-0.5-0.2239-0.5-0.5l0,0c0-0.2761,0.2239-0.5,0.5-0.5h4c0.2761,0,0.5,0.2239,0.5,0.5
		l0,0C20,16.7761,19.7761,17,19.5,17z"/>
	<path fill="#C8C6C4" d="M19.5,19h-4c-0.2761,0-0.5-0.2239-0.5-0.5l0,0c0-0.2761,0.2239-0.5,0.5-0.5h4c0.2761,0,0.5,0.2239,0.5,0.5
		l0,0C20,18.7761,19.7761,19,19.5,19z"/>
	<path fill="#C8C6C4" d="M19.5,21h-4c-0.2761,0-0.5-0.2239-0.5-0.5l0,0c0-0.2761,0.2239-0.5,0.5-0.5h4c0.2761,0,0.5,0.2239,0.5,0.5
		l0,0C20,20.7761,19.7761,21,19.5,21z"/>
	<path fill="#C8C6C4" d="M19.5,23h-4c-0.2761,0-0.5-0.2239-0.5-0.5l0,0c0-0.2761,0.2239-0.5,0.5-0.5h4c0.2761,0,0.5,0.2239,0.5,0.5
		l0,0C20,22.7761,19.7761,23,19.5,23z"/>
	<path fill="#107C41" d="M3.5,25h11c0.8284,0,1.5-0.6716,1.5-1.5v-11c0-0.8284-0.6716-1.5-1.5-1.5h-11C2.6716,11,2,11.6716,2,12.5
		v11C2,24.3284,2.6716,25,3.5,25z"/>
	<g>
		<g>
			<path fill="#F9F7F7" d="M6,22l2.1735-4.0107L6.1823,14h1.602l1.0867,2.549c0.0996,0.2424,0.1686,0.423,0.2061,0.5417h0.0145
				c0.0715-0.1937,0.1465-0.3814,0.2248-0.564L10.4781,14h1.47l-2.0423,3.967L12,22h-1.5645l-1.2554-2.8006
				c-0.0528-0.1045-0.1031-0.2282-0.1499-0.3743H9.0115c-0.0221,0.0893-0.0698,0.211-0.1448,0.3631L7.5739,22H6z"/>
		</g>
	</g>
</g>
<g id="CENTERED_x5F_MARGINS" display="none">
</g>
<g id="_x5F_FILE_x5F_CENTER" display="none">
</g>
<g id="_x5F_RIGHT_x5F_MARGIN" display="none" opacity="0.5">
	<g display="inline">
		<rect x="26" fill="#00FFFF" width="6" height="32"/>
	</g>
	<g display="inline">
		<rect x="26" opacity="0.3" fill="#00FFFF" width="6" height="32"/>
	</g>
</g>
<g id="_x5F_THREE_x5F_HEIGHTS" display="none">
	<rect x="16" y="12" display="inline" opacity="0.2" fill="#F7931E" width="16" height="16"/>
</g>
<g id="FOLDER_x5F_INCIDACTORS" display="none">
</g>
</svg>
