<?xml version="1.0" encoding="utf-8"?>
<!-- Generator: Adobe Illustrator 23.0.0, SVG Export Plug-In . SVG Version: 6.00 Build 0)  -->
<svg version="1.1" xmlns="http://www.w3.org/2000/svg" xmlns:xlink="http://www.w3.org/1999/xlink" x="0px" y="0px"
	 viewBox="0 0 32 32" enable-background="new 0 0 32 32" xml:space="preserve">
<g id="_x5F_GRID" display="none">
</g>
<g id="ICONS">
	<path fill="#FFFFFF" stroke="#979593" stroke-miterlimit="10" d="M27.5,28.5h-23c-0.5523,0-1-0.4477-1-1v-23c0-0.5523,0.4477-1,1-1
		h23c0.5523,0,1,0.4477,1,1v23C28.5,28.0523,28.0523,28.5,27.5,28.5z"/>
	<g>
		
			<circle fill="none" stroke="#69AFE5" stroke-linecap="round" stroke-linejoin="round" stroke-miterlimit="10" cx="13" cy="19" r="1.5"/>
		
			<circle fill="none" stroke="#69AFE5" stroke-linecap="round" stroke-linejoin="round" stroke-miterlimit="10" cx="19" cy="18" r="1.5"/>
		<polyline fill="none" stroke="#69AFE5" stroke-linejoin="round" stroke-miterlimit="10" points="20.5,18 20.5,11.5 14.5,12.5 
			14.5,19 		"/>
		<line fill="none" stroke="#69AFE5" stroke-linejoin="round" stroke-miterlimit="10" x1="20.5" y1="13.5" x2="14.5" y2="14.5"/>
	</g>
</g>
<g id="CENTERED_x5F_MARGINS" display="none">
	<g display="inline">
		<g>
			<rect transform="matrix(-1 -1.224647e-16 1.224647e-16 -1 3 32)" opacity="0.3" fill="#00FFFF" width="3" height="32"/>
			
				<rect x="-13" y="13" transform="matrix(-1.836970e-16 1 -1 -1.836970e-16 19 13)" opacity="0.2" fill="#00FFFF" width="32" height="6"/>
		</g>
		<g>
			
				<rect x="14.5" y="-14.5" transform="matrix(6.123234e-17 -1 1 6.123234e-17 14.5 17.5)" opacity="0.3" fill="#00FFFF" width="3" height="32"/>
			<rect transform="matrix(-1 -1.224647e-16 1.224647e-16 -1 32 6)" opacity="0.2" fill="#00FFFF" width="32" height="6"/>
		</g>
		<g>
			
				<rect x="14.5" y="14.5" transform="matrix(-1.836970e-16 1 -1 -1.836970e-16 46.5 14.5)" opacity="0.3" fill="#00FFFF" width="3" height="32"/>
			<rect y="26" opacity="0.2" fill="#00FFFF" width="32" height="6"/>
		</g>
		<g>
			<rect x="29" opacity="0.3" fill="#00FFFF" width="3" height="32"/>
			
				<rect x="13" y="13" transform="matrix(6.123234e-17 -1 1 6.123234e-17 13 45)" opacity="0.2" fill="#00FFFF" width="32" height="6"/>
		</g>
	</g>
</g>
<g id="_x5F_FILE_x5F_CENTER" display="none">
</g>
<g id="_x5F_THREE_x5F_HEIGHTS" display="none">
</g>
<g id="FOLDER_x5F_INCIDACTORS" display="none">
</g>
</svg>
