<?xml version="1.0" encoding="utf-8"?>
<!-- Generator: Adobe Illustrator 23.0.0, SVG Export Plug-In . SVG Version: 6.00 Build 0)  -->
<svg version="1.1" xmlns="http://www.w3.org/2000/svg" xmlns:xlink="http://www.w3.org/1999/xlink" x="0px" y="0px"
	 viewBox="0 0 32 32" enable-background="new 0 0 32 32" xml:space="preserve">
<g id="_x5F_GRID" display="none">
</g>
<g id="ICONS">
	<g>
		<path fill="#FFFFFF" stroke="#979593" stroke-miterlimit="10" d="M20.0858,2.5H6.5c-0.5523,0-1,0.4477-1,1v25
			c0,0.5523,0.4477,1,1,1h19c0.5523,0,1-0.4477,1-1V8.9142c0-0.2652-0.1054-0.5196-0.2929-0.7071l-5.4142-5.4142
			C20.6054,2.6054,20.351,2.5,20.0858,2.5z"/>
		<path fill="none" stroke="#979593" stroke-miterlimit="10" d="M20.5,2.5v5c0,0.5523,0.4477,1,1,1h5"/>
	</g>
	<g>
		<path fill="#C8C6C4" d="M23.5,24h-15C8.2239,24,8,23.7761,8,23.5l0,0C8,23.2239,8.2239,23,8.5,23h15c0.2761,0,0.5,0.2239,0.5,0.5
			l0,0C24,23.7761,23.7761,24,23.5,24z"/>
		<path fill="#C8C6C4" d="M23.5,26h-15C8.2239,26,8,25.7761,8,25.5l0,0C8,25.2239,8.2239,25,8.5,25h15c0.2761,0,0.5,0.2239,0.5,0.5
			l0,0C24,25.7761,23.7761,26,23.5,26z"/>
	</g>
	<line fill="none" stroke="#69AFE5" stroke-linecap="round" stroke-miterlimit="10" x1="18" y1="11" x2="14" y2="21"/>
	<polyline fill="none" stroke="#69AFE5" stroke-linecap="round" stroke-linejoin="round" stroke-miterlimit="10" points="20.5,13 
		23.5,15.9779 20.5,19 	"/>
	<polyline fill="none" stroke="#69AFE5" stroke-linecap="round" stroke-linejoin="round" stroke-miterlimit="10" points="11.5,19 
		8.5,16.0221 11.5,13 	"/>
</g>
<g id="CENTERED_x5F_MARGINS" display="none">
	<g display="inline">
		<g>
			
				<rect x="14.5" y="-9.5" transform="matrix(6.123234e-17 -1 1 6.123234e-17 9.5 22.5)" opacity="0.2" fill="#FF00FF" width="3" height="32"/>
			
				<rect x="15" y="-10" transform="matrix(6.123234e-17 -1 1 6.123234e-17 10 22)" opacity="0.3" fill="#FF00FF" width="2" height="32"/>
		</g>
		<g>
			<rect x="29" y="5" opacity="0.2" fill="#FF00FF" width="3" height="32"/>
			<rect x="30" y="5" opacity="0.3" fill="#FF00FF" width="2" height="32"/>
		</g>
		<g>
			<rect y="5" transform="matrix(-1 -1.224647e-16 1.224647e-16 -1 3 42)" opacity="0.2" fill="#FF00FF" width="3" height="32"/>
			<rect y="5" transform="matrix(-1 -1.224647e-16 1.224647e-16 -1 2 42)" opacity="0.3" fill="#FF00FF" width="2" height="32"/>
		</g>
	</g>
	<g display="inline">
		<rect x="24" y="5" opacity="0.3" fill="#00FFFF" width="8" height="32"/>
		<rect y="5" opacity="0.3" fill="#00FFFF" width="8" height="32"/>
	</g>
</g>
<g id="_x5F_FILE_x5F_CENTER" display="none">
</g>
<g id="_x5F_THREE_x5F_HEIGHTS" display="none">
	<rect y="15" display="inline" opacity="0.2" fill="#F7931E" width="32" height="16"/>
</g>
<g id="FOLDER_x5F_INCIDACTORS" display="none">
</g>
</svg>
