<?xml version="1.0" encoding="utf-8"?>
<!-- Generator: Adobe Illustrator 23.0.0, SVG Export Plug-In . SVG Version: 6.00 Build 0)  -->
<svg version="1.1" xmlns="http://www.w3.org/2000/svg" xmlns:xlink="http://www.w3.org/1999/xlink" x="0px" y="0px"
	 viewBox="0 0 32 32" enable-background="new 0 0 32 32" xml:space="preserve">
<g id="_x5F_GRID" display="none">
	<g display="inline">
		<path fill="#D0D0D0" d="M32,0v32H0V0H32 M33-1h-1H0h-1v1v32v1h1h32h1v-1V0V-1L33-1z"/>
	</g>
	<g display="inline" opacity="0.1">
		<path fill="#FF3A6D" d="M30,2v28H2V2H30 M32,0H0v32h32V0L32,0z"/>
	</g>
</g>
<g id="ICONS">
	<path fill="#FFB900" d="M15,8l-1.4142-1.4142C13.2107,6.2107,12.702,6,12.1716,6H3C2.4477,6,2,6.4477,2,7v18.5
		C2,25.7761,2.2239,26,2.5,26h27c0.2761,0,0.5-0.2239,0.5-0.5V9c0-0.5523-0.4477-1-1-1H15z"/>
	<path fill="#FFD75E" d="M15,8l-1.4142,1.4142C13.2107,9.7893,12.702,10,12.1716,10H2v15.5C2,25.7761,2.2239,26,2.5,26h27
		c0.2761,0,0.5-0.2239,0.5-0.5V9c0-0.5523-0.4477-1-1-1H15z"/>
	<linearGradient id="SVGID_1_" gradientUnits="userSpaceOnUse" x1="16" y1="8" x2="16" y2="26">
		<stop  offset="0" style="stop-color:#FFFFFF;stop-opacity:0"/>
		<stop  offset="1" style="stop-color:#FFD75E;stop-opacity:0.3"/>
	</linearGradient>
	<path fill="url(#SVGID_1_)" d="M15,8l-1.4142,1.4142C13.2107,9.7893,12.702,10,12.1716,10H2v15.5C2,25.7761,2.2239,26,2.5,26h27
		c0.2761,0,0.5-0.2239,0.5-0.5V9c0-0.5523-0.4477-1-1-1H15z"/>
	<path opacity="0.4" fill="#FFFFFF" d="M16.5,8l-2.1213,2.1213C13.8161,10.6839,13.053,11,12.2574,11H2v-1h10.1716
		c0.5304,0,1.0391-0.2107,1.4142-0.5858L15,8H16.5z"/>
	<path fill="#DA7B16" d="M2,25h28v0.5c0,0.2761-0.2239,0.5-0.5,0.5h-27C2.2239,26,2,25.7761,2,25.5V25z"/>
</g>
<g id="CENTERED_x5F_MARGINS" display="none">
</g>
<g id="_x5F_FILE_x5F_CENTER" display="none">
</g>
<g id="_x5F_THREE_x5F_HEIGHTS" display="none">
</g>
<g id="FOLDER_x5F_INCIDACTORS" display="none">
</g>
</svg>
