<?xml version="1.0" encoding="utf-8"?>
<!-- Generator: Adobe Illustrator 23.0.0, SVG Export Plug-In . SVG Version: 6.00 Build 0)  -->
<svg version="1.1" xmlns="http://www.w3.org/2000/svg" xmlns:xlink="http://www.w3.org/1999/xlink" x="0px" y="0px"
	 viewBox="0 0 32 32" enable-background="new 0 0 32 32" xml:space="preserve">
<g id="_x5F_GRID" display="none">
</g>
<g id="ICONS">
	<path fill="#FFFFFF" stroke="#979593" stroke-miterlimit="10" d="M27.5,25.5h-23c-0.5523,0-1-0.4477-1-1v-17c0-0.5523,0.4477-1,1-1
		h23c0.5523,0,1,0.4477,1,1v17C28.5,25.0523,28.0523,25.5,27.5,25.5z"/>
	<circle fill="#C8C6C4" cx="6" cy="9" r="1"/>
	<circle fill="#C8C6C4" cx="9" cy="9" r="1"/>
	<circle fill="#C8C6C4" cx="12" cy="9" r="1"/>
	<line fill="none" stroke="#979593" stroke-miterlimit="10" x1="3.5" y1="11.5" x2="28.5" y2="11.5"/>
	<g>
		<circle fill="none" stroke="#69AFE5" stroke-miterlimit="10" cx="16" cy="18" r="4.5"/>
		<ellipse fill="none" stroke="#69AFE5" stroke-miterlimit="10" cx="16" cy="18" rx="1.5" ry="4.5"/>
		<line fill="none" stroke="#69AFE5" stroke-miterlimit="10" x1="12" y1="16.5" x2="20" y2="16.5"/>
		<line fill="none" stroke="#69AFE5" stroke-miterlimit="10" x1="12" y1="19.5" x2="20" y2="19.5"/>
	</g>
</g>
<g id="CENTERED_x5F_MARGINS" display="none">
	<g display="inline">
		<g>
			<rect transform="matrix(-1 -1.224647e-16 1.224647e-16 -1 3 32)" opacity="0.3" fill="#00FFFF" width="3" height="32"/>
			
				<rect x="-13" y="13" transform="matrix(-1.836970e-16 1 -1 -1.836970e-16 19 13)" opacity="0.2" fill="#00FFFF" width="32" height="6"/>
		</g>
		<g>
			
				<rect x="14.5" y="-14.5" transform="matrix(6.123234e-17 -1 1 6.123234e-17 14.5 17.5)" opacity="0.3" fill="#00FFFF" width="3" height="32"/>
			<rect transform="matrix(-1 -1.224647e-16 1.224647e-16 -1 32 6)" opacity="0.2" fill="#00FFFF" width="32" height="6"/>
		</g>
		<g>
			
				<rect x="14.5" y="14.5" transform="matrix(-1.836970e-16 1 -1 -1.836970e-16 46.5 14.5)" opacity="0.3" fill="#00FFFF" width="3" height="32"/>
			<rect y="26" opacity="0.2" fill="#00FFFF" width="32" height="6"/>
		</g>
		<g>
			<rect x="29" opacity="0.3" fill="#00FFFF" width="3" height="32"/>
			
				<rect x="13" y="13" transform="matrix(6.123234e-17 -1 1 6.123234e-17 13 45)" opacity="0.2" fill="#00FFFF" width="32" height="6"/>
		</g>
	</g>
</g>
<g id="_x5F_FILE_x5F_CENTER" display="none">
</g>
<g id="_x5F_THREE_x5F_HEIGHTS" display="none">
</g>
<g id="FOLDER_x5F_INCIDACTORS" display="none">
</g>
</svg>
