<?xml version="1.0" encoding="utf-8"?>
<!-- Generator: Adobe Illustrator 23.0.0, SVG Export Plug-In . SVG Version: 6.00 Build 0)  -->
<svg version="1.1" xmlns="http://www.w3.org/2000/svg" xmlns:xlink="http://www.w3.org/1999/xlink" x="0px" y="0px"
	 viewBox="0 0 32 32" enable-background="new 0 0 32 32" xml:space="preserve">
<g id="_x5F_GRID" display="none">
	<g display="inline">
		<g>
			
				<rect x="14.5" y="-14.5" transform="matrix(6.123234e-17 -1 1 6.123234e-17 14.5 17.5)" opacity="0.2" fill="#FF00FF" width="3" height="32"/>
			
				<rect x="15" y="-15" transform="matrix(6.123234e-17 -1 1 6.123234e-17 15 17)" opacity="0.3" fill="#FF00FF" width="2" height="32"/>
		</g>
		<g>
			<rect x="29" opacity="0.2" fill="#FF00FF" width="3" height="32"/>
			<rect x="30" opacity="0.3" fill="#FF00FF" width="2" height="32"/>
		</g>
		<g>
			
				<rect x="14.5" y="14.5" transform="matrix(-1.836970e-16 1 -1 -1.836970e-16 46.5 14.5)" opacity="0.2" fill="#FF00FF" width="3" height="32"/>
			
				<rect x="15" y="15" transform="matrix(-1.836970e-16 1 -1 -1.836970e-16 47 15)" opacity="0.3" fill="#FF00FF" width="2" height="32"/>
		</g>
		<g>
			<rect transform="matrix(-1 -1.224647e-16 1.224647e-16 -1 3 32)" opacity="0.2" fill="#FF00FF" width="3" height="32"/>
			<rect transform="matrix(-1 -1.224647e-16 1.224647e-16 -1 2 32)" opacity="0.3" fill="#FF00FF" width="2" height="32"/>
		</g>
	</g>
</g>
<g id="ICONS">
	<path fill="#FFFFFF" stroke="#979593" stroke-miterlimit="10" d="M23.0858,2.5H9.5c-0.5523,0-1,0.4477-1,1v25
		c0,0.5523,0.4477,1,1,1h19c0.5523,0,1-0.4477,1-1V8.9142c0-0.2652-0.1054-0.5196-0.2929-0.7071l-5.4142-5.4142
		C23.6054,2.6054,23.351,2.5,23.0858,2.5z"/>
	<path fill="none" stroke="#979593" stroke-miterlimit="10" d="M23.5,2.5v5c0,0.5523,0.4477,1,1,1h5"/>
	<path fill="#F5BA9D" d="M21,11c2.2091,0,4,1.7909,4,4h-4V11z"/>
	<path fill="#C8C6C4" d="M25,16c0,3.1128-2.8444,5.5612-6.0759,4.8877c-1.8899-0.3939-3.4179-1.9219-3.8118-3.8118
		C14.4388,13.8445,16.8872,11,20,11v5H25z"/>
	<path fill="#C8C6C4" d="M26.5,24H21h-4h-5.5c-0.2764,0-0.5,0.2236-0.5,0.5s0.2236,0.5,0.5,0.5H17h4h5.5
		c0.2764,0,0.5-0.2236,0.5-0.5S26.7764,24,26.5,24z"/>
	<path fill="#C8C6C4" d="M26.5,22H21h-4h-5.5c-0.2764,0-0.5,0.2236-0.5,0.5s0.2236,0.5,0.5,0.5H17h4h5.5
		c0.2764,0,0.5-0.2236,0.5-0.5S26.7764,22,26.5,22z"/>
	<path fill="#C43E1C" d="M3.5,25h11c0.8284,0,1.5-0.6716,1.5-1.5v-11c0-0.8284-0.6716-1.5-1.5-1.5h-11C2.6716,11,2,11.6716,2,12.5
		v11C2,24.3284,2.6716,25,3.5,25z"/>
	<g>
		<path fill="#FFFFFF" d="M9.5244,14.0208c0.9209,0,1.625,0.2135,2.1143,0.6399c0.4883,0.4264,0.7334,1.0441,0.7334,1.8529
			c0,0.5195-0.1157,0.9867-0.3579,1.3909c-0.2412,0.4042-0.5903,0.7134-1.0366,0.938c-0.4453,0.2241-0.9565,0.3418-1.5435,0.3418
			H7.9673L7.9619,22H6.7812v-7.9792H9.5244z M7.9619,18h1.6147c0.5039,0,0.8857-0.1179,1.1436-0.3531
			c0.2578-0.2357,0.4412-0.6551,0.4412-1.1078C11.1614,15.66,10.6128,15,9.6245,15H7.9619V18z"/>
	</g>
</g>
<g id="CENTERED_x5F_MARGINS" display="none">
</g>
<g id="_x5F_FILE_x5F_CENTER" display="none">
</g>
<g id="_x5F_RIGHT_x5F_MARGIN" display="none" opacity="0.5">
	<g display="inline">
		<rect x="26" fill="#00FFFF" width="6" height="32"/>
	</g>
	<g display="inline">
		<rect x="26" opacity="0.3" fill="#00FFFF" width="6" height="32"/>
	</g>
</g>
<g id="_x5F_THREE_x5F_HEIGHTS" display="none">
	<rect x="16" y="12" display="inline" opacity="0.2" fill="#F7931E" width="16" height="16"/>
</g>
<g id="FOLDER_x5F_INCIDACTORS" display="none">
</g>
</svg>
