<?xml version="1.0" encoding="utf-8"?>
<!-- Generator: Adobe Illustrator 23.0.0, SVG Export Plug-In . SVG Version: 6.00 Build 0)  -->
<svg version="1.1" xmlns="http://www.w3.org/2000/svg" xmlns:xlink="http://www.w3.org/1999/xlink" x="0px" y="0px"
	 viewBox="0 0 32 32" enable-background="new 0 0 32 32" xml:space="preserve">
<g id="_x5F_GRID" display="none">
</g>
<g id="ICONS">
	<circle fill="#C8C6C4" cx="6" cy="9" r="1"/>
	<g>
		<path fill="#FFFFFF" stroke="#979593" stroke-miterlimit="10" d="M22.0858,6.5H4.5c-0.5523,0-1,0.4477-1,1v17
			c0,0.5523,0.4477,1,1,1h23c0.5523,0,1-0.4477,1-1V12.9142c0-0.2652-0.1054-0.5196-0.2929-0.7071l-5.4142-5.4142
			C22.6054,6.6054,22.351,6.5,22.0858,6.5z"/>
		<path fill="none" stroke="#979593" stroke-miterlimit="10" d="M22.5,6.5v5c0,0.5523,0.4477,1,1,1h5"/>
	</g>
	<g>
		<path fill="#C8C6C4" d="M10.5,15h-4C6.2239,15,6,14.7761,6,14.5v0C6,14.2239,6.2239,14,6.5,14h4c0.2761,0,0.5,0.2239,0.5,0.5v0
			C11,14.7761,10.7761,15,10.5,15z"/>
		<path fill="#C8C6C4" d="M10.5,13h-4C6.2239,13,6,12.7761,6,12.5v0C6,12.2239,6.2239,12,6.5,12h4c0.2761,0,0.5,0.2239,0.5,0.5v0
			C11,12.7761,10.7761,13,10.5,13z"/>
		<path fill="#C8C6C4" d="M10.5,17h-4C6.2239,17,6,16.7761,6,16.5l0,0C6,16.2239,6.2239,16,6.5,16h4c0.2761,0,0.5,0.2239,0.5,0.5
			l0,0C11,16.7761,10.7761,17,10.5,17z"/>
		<path fill="#C8C6C4" d="M10.5,19h-4C6.2239,19,6,18.7761,6,18.5l0,0C6,18.2239,6.2239,18,6.5,18h4c0.2761,0,0.5,0.2239,0.5,0.5
			l0,0C11,18.7761,10.7761,19,10.5,19z"/>
		<path fill="#C8C6C4" d="M10.5,21h-4C6.2239,21,6,20.7761,6,20.5l0,0C6,20.2239,6.2239,20,6.5,20h4c0.2761,0,0.5,0.2239,0.5,0.5
			l0,0C11,20.7761,10.7761,21,10.5,21z"/>
		<path fill="#C8C6C4" d="M10.5,23h-4C6.2239,23,6,22.7761,6,22.5l0,0C6,22.2239,6.2239,22,6.5,22h4c0.2761,0,0.5,0.2239,0.5,0.5
			l0,0C11,22.7761,10.7761,23,10.5,23z"/>
	</g>
	<g>
		<path fill="#B7472A" d="M18,12.9996c2.2091,0,4,1.791,4,4.0004h-4V12.9996z"/>
		<path fill="#C8C6C4" d="M22,17.9999c0,3.1146-2.8478,5.5641-6.0817,4.8865c-1.8859-0.3951-3.4097-1.919-3.8048-3.8048
			c-0.6776-3.2339,1.7719-6.0817,4.8865-6.0817v5H22z"/>
	</g>
</g>
<g id="CENTERED_x5F_MARGINS" display="none">
	<g display="inline">
		<g>
			<rect transform="matrix(-1 -1.224647e-16 1.224647e-16 -1 3 32)" opacity="0.3" fill="#00FFFF" width="3" height="32"/>
			
				<rect x="-13" y="13" transform="matrix(-1.836970e-16 1 -1 -1.836970e-16 19 13)" opacity="0.2" fill="#00FFFF" width="32" height="6"/>
		</g>
		<g>
			
				<rect x="14.5" y="-14.5" transform="matrix(6.123234e-17 -1 1 6.123234e-17 14.5 17.5)" opacity="0.3" fill="#00FFFF" width="3" height="32"/>
			<rect transform="matrix(-1 -1.224647e-16 1.224647e-16 -1 32 6)" opacity="0.2" fill="#00FFFF" width="32" height="6"/>
		</g>
		<g>
			
				<rect x="14.5" y="14.5" transform="matrix(-1.836970e-16 1 -1 -1.836970e-16 46.5 14.5)" opacity="0.3" fill="#00FFFF" width="3" height="32"/>
			<rect y="26" opacity="0.2" fill="#00FFFF" width="32" height="6"/>
		</g>
		<g>
			<rect x="29" opacity="0.3" fill="#00FFFF" width="3" height="32"/>
			
				<rect x="13" y="13" transform="matrix(6.123234e-17 -1 1 6.123234e-17 13 45)" opacity="0.2" fill="#00FFFF" width="32" height="6"/>
		</g>
	</g>
</g>
<g id="_x5F_FILE_x5F_CENTER" display="none">
</g>
<g id="_x5F_THREE_x5F_HEIGHTS" display="none">
</g>
<g id="FOLDER_x5F_INCIDACTORS" display="none">
</g>
</svg>
