<svg xmlns="http://www.w3.org/2000/svg" fill="none" viewBox="0 0 16 16">
  <path fill="#fff" fill-rule="evenodd" d="M8 0C5.498 0 3.392 1.86 3.38 4.25h-.006a3.375 3.375 0 000 6.75h2.396c.03-.343.09-.677.177-1H3.375a2.375 2.375 0 110-4.75h.024c.543 0 .982-.44.982-.982C4.381 2.504 5.96 1 8 1c2.04 0 3.618 1.504 3.618 3.268 0 .542.44.982.982.982h.025c1.036 0 1.917.663 2.242 1.588.42.304.797.664 1.121 1.068a3.375 3.375 0 00-3.364-3.656h-.006C12.608 1.86 10.501 0 8 0z" clip-rule="evenodd"/>
  <path fill="#fff" fill-rule="evenodd" d="M16 11.5a4.5 4.5 0 11-9 0 4.5 4.5 0 019 0zm-6.898-.398c.22-.22.576-.22.796 0L11 12.204V9.5a.5.5 0 011 0v2.704l1.102-1.102a.562.562 0 11.796.796l-2 2a.562.562 0 01-.796 0l-2-2a.562.562 0 010-.796z" clip-rule="evenodd"/>
</svg>
