<svg xmlns="http://www.w3.org/2000/svg" fill="none" viewBox="0 0 16 16">
  <path fill="#fff" fill-rule="evenodd" d="M2 1a2 2 0 00-2 2v10a2 2 0 002 2h4.05a2.512 2.512 0 01-.05-.5V14H2a1 1 0 01-1-1V3a1 1 0 011-1h3.75a1 1 0 01.8.4L7.6 3.8l.15.2H14a1 1 0 011 1v1.05c.37.075.71.231 1 .45V5a2 2 0 00-2-2H8.25l-.9-1.2a2 2 0 00-1.6-.8H2z" clip-rule="evenodd"/>
  <path stroke="#fff" d="M.5 4.5h5.546a1.5 1.5 0 00.832-.252L8 3.5"/>
  <path fill="#fff" fill-rule="evenodd" d="M8.5 7A1.5 1.5 0 007 8.5v6A1.5 1.5 0 008.5 16h6a1.5 1.5 0 001.5-1.5v-6A1.5 1.5 0 0014.5 7h-6zm5.898 3.398a.562.562 0 10-.796-.796L10.5 12.704l-1.102-1.102a.562.562 0 10-.796.796l1.5 1.5c.22.22.576.22.796 0l3.5-3.5z" clip-rule="evenodd"/>
</svg>
